<svg xmlns="http://www.w3.org/2000/svg" width="40" height="40" viewBox="0 0 40 40"><defs><linearGradient id="w" x1="0" y1="0" x2="0" y2="1"><stop offset="0" stop-color="#0d3b4f"/><stop offset=".5" stop-color="#0a2e40"/><stop offset="1" stop-color="#041c29"/></linearGradient><clipPath id="c"><rect x="2" y="2" width="36" height="36" rx="8"/></clipPath><g id="m"><ellipse rx="3.8" ry="1.7" fill="#7a9bb0"/><ellipse cy=".7" rx="3.3" ry=".9" fill="#b4ccdc"/><ellipse cx="-.3" cy="-.7" rx="3" ry=".7" fill="#4a6a80"/><polygon points="-3.3,0 -6,-2 -5.3,0 -6,2" fill="#4a6a80"/><polygon points=".5,-1.6 -1,-2.4 -1.5,-1.6" fill="#4a6a80"/><polygon points=".5,1.6 -.5,2.3 -1.2,1.6" fill="#4a6a80"/><circle cx="2.5" cy="-.2" r=".5" fill="#1a0f0a"/><circle cx="2.6" cy="-.35" r=".12" fill="#fff"/></g><g id="s"><ellipse rx="2.8" ry="1.3" fill="#8aacc0"/><ellipse cy=".5" rx="2.4" ry=".7" fill="#bcd2e0"/><ellipse cx="-.2" cy="-.5" rx="2.2" ry=".5" fill="#557386"/><polygon points="-2.3,0 -4.5,-1.5 -4,0 -4.5,1.5" fill="#557386"/><polygon points=".3,-1.2 -.8,-1.8 -1.1,-1.2" fill="#557386"/><circle cx="1.8" cy="-.2" r=".35" fill="#1a0f0a"/></g></defs><g clip-path="url(#c)"><rect x="2" y="2" width="36" height="36" fill="url(#w)"/><polygon points="8,2 14,2 10,38 6,38" fill="#fff" opacity=".04"/><polygon points="24,2 28,2 26,38 22,38" fill="#fff" opacity=".03"/><circle cx="30" cy="10" r=".5" fill="#a8e8ff" opacity=".6"/><circle cx="8" cy="28" r=".4" fill="#a8e8ff" opacity=".5"/><circle cx="34" cy="30" r=".4" fill="#a8e8ff" opacity=".5"/><g transform="translate(26 20)"><g transform="scale(1.6)"><ellipse rx="5" ry="2.2" fill="#6b8fa8"/><ellipse cy="1" rx="4.5" ry="1.2" fill="#a8c4d6"/><ellipse cx="-.5" cy="-1" rx="4" ry=".9" fill="#3d5a70"/><polygon points="-4.5,0 -8,-2.8 -7,0 -8,2.8" fill="#3d5a70"/><polygon points="-4.5,0 -7,-1.8 -6.5,0 -7,1.8" fill="#6b8fa8"/><polygon points="1,-2 -1.5,-3.2 -2,-2" fill="#3d5a70"/><polygon points="1,2 -.5,3 -1.5,2" fill="#3d5a70"/><line x1="2.8" y1="-1.2" x2="2.8" y2="1.2" stroke="#3d5a70" stroke-width=".4"/><circle cx="3.5" cy="-.3" r=".7" fill="#f4e4a8"/><circle cx="3.7" cy="-.3" r=".4" fill="#1a0f0a"/><circle cx="3.85" cy="-.5" r=".15" fill="#fff"/></g><use href="#m" transform="translate(-12 -7) scale(1.4)"/><use href="#m" transform="translate(-10 7) scale(1.4)"/><use href="#s" transform="translate(-19 -2) scale(1.3)"/><use href="#s" transform="translate(-22 5) scale(1.2)"/><g transform="translate(-26 -5) scale(1.2)"><ellipse rx="2.2" ry="1" fill="#8aacc0"/><ellipse cy=".4" rx="1.8" ry=".5" fill="#bcd2e0"/><polygon points="-1.8,0 -3.5,-1.2 -3.2,0 -3.5,1.2" fill="#557386"/><circle cx="1.4" cy="-.1" r=".3" fill="#1a0f0a"/></g></g></g></svg>